<svg id="visual" viewBox="0 0 960 540" width="960" height="540" xmlns="http://www.w3.org/2000/svg" xmlns:xlink="http://www.w3.org/1999/xlink" version="1.1"><path d="M0 201L87 93L175 195L262 141L349 152L436 190L524 152L611 109L698 190L785 104L873 77L960 109L960 0L873 0L785 0L698 0L611 0L524 0L436 0L349 0L262 0L175 0L87 0L0 0Z" fill="#00cc8e"></path><path d="M0 325L87 141L175 260L262 260L349 271L436 298L524 266L611 249L698 276L785 212L873 158L960 212L960 107L873 75L785 102L698 188L611 107L524 150L436 188L349 150L262 139L175 193L87 91L0 199Z" fill="#00b98a"></path><path d="M0 401L87 390L175 422L262 384L349 363L436 438L524 406L611 395L698 390L785 417L873 368L960 395L960 210L873 156L785 210L698 274L611 247L524 264L436 296L349 269L262 258L175 258L87 139L0 323Z" fill="#00a784"></path><path d="M0 455L87 471L175 498L262 422L349 449L436 471L524 455L611 438L698 428L785 482L873 455L960 471L960 393L873 366L785 415L698 388L611 393L524 404L436 436L349 361L262 382L175 420L87 388L0 399Z" fill="#00957c"></path><path d="M0 541L87 541L175 541L262 541L349 541L436 541L524 541L611 541L698 541L785 541L873 541L960 541L960 469L873 453L785 480L698 426L611 436L524 453L436 469L349 447L262 420L175 496L87 469L0 453Z" fill="#038373"></path></svg>